<mxfile host="app.diagrams.net" modified="2023-01-30T09:37:31.000Z" agent="5.0 (Windows NT 10.0; Win64; x64) AppleWebKit/537.36 (KHTML, like Gecko) Chrome/109.0.0.0 Safari/537.36" etag="wYnRmbF1sgt0jm2AzCQg" version="20.8.13" type="github">
  <diagram name="Page-1" id="O6_y39WmobaEuZ57Aed5">
    <mxGraphModel dx="1595" dy="630" grid="0" gridSize="10" guides="1" tooltips="1" connect="1" arrows="1" fold="1" page="0" pageScale="1" pageWidth="827" pageHeight="1169" math="0" shadow="0">
      <root>
        <mxCell id="0" />
        <mxCell id="1" parent="0" />
        <mxCell id="llzl7Z2hF7iHjySsMF71-1" value="Tracker" style="rounded=0;whiteSpace=wrap;html=1;" parent="1" vertex="1">
          <mxGeometry x="131" y="20" width="160" height="30" as="geometry" />
        </mxCell>
        <mxCell id="llzl7Z2hF7iHjySsMF71-2" style="edgeStyle=orthogonalEdgeStyle;rounded=0;orthogonalLoop=1;jettySize=auto;html=1;exitX=0.5;exitY=0;exitDx=0;exitDy=0;entryX=0.5;entryY=1;entryDx=0;entryDy=0;endArrow=block;endFill=0;endSize=15;startSize=15;" parent="1" source="llzl7Z2hF7iHjySsMF71-3" target="llzl7Z2hF7iHjySsMF71-19" edge="1">
          <mxGeometry relative="1" as="geometry" />
        </mxCell>
        <mxCell id="llzl7Z2hF7iHjySsMF71-3" value="Exercise" style="rounded=0;whiteSpace=wrap;html=1;" parent="1" vertex="1">
          <mxGeometry x="19" y="324" width="180" height="30" as="geometry" />
        </mxCell>
        <mxCell id="llzl7Z2hF7iHjySsMF71-4" style="edgeStyle=orthogonalEdgeStyle;rounded=0;orthogonalLoop=1;jettySize=auto;html=1;exitX=0.5;exitY=0;exitDx=0;exitDy=0;entryX=0.5;entryY=1;entryDx=0;entryDy=0;endArrow=block;endFill=0;endSize=15;startSize=15;" parent="1" source="llzl7Z2hF7iHjySsMF71-5" target="llzl7Z2hF7iHjySsMF71-19" edge="1">
          <mxGeometry relative="1" as="geometry" />
        </mxCell>
        <mxCell id="llzl7Z2hF7iHjySsMF71-5" value="Food" style="rounded=0;whiteSpace=wrap;html=1;" parent="1" vertex="1">
          <mxGeometry x="223" y="324" width="180" height="30" as="geometry" />
        </mxCell>
        <mxCell id="llzl7Z2hF7iHjySsMF71-6" value="0..*" style="text;html=1;align=center;verticalAlign=middle;resizable=0;points=[];autosize=1;strokeColor=none;fillColor=none;" parent="1" vertex="1">
          <mxGeometry x="176.37" y="126" width="40" height="30" as="geometry" />
        </mxCell>
        <mxCell id="llzl7Z2hF7iHjySsMF71-11" value="- exerciseDuration: int&lt;br style=&quot;border-color: var(--border-color);&quot;&gt;- /itemEndTime: DateTime" style="rounded=0;whiteSpace=wrap;html=1;align=left;spacingLeft=2;" parent="1" vertex="1">
          <mxGeometry x="19" y="354" width="180" height="39" as="geometry" />
        </mxCell>
        <mxCell id="llzl7Z2hF7iHjySsMF71-13" value="- servingSizeInGrams: int" style="rounded=0;whiteSpace=wrap;html=1;align=left;spacingLeft=2;" parent="1" vertex="1">
          <mxGeometry x="223" y="354" width="180" height="23" as="geometry" />
        </mxCell>
        <mxCell id="llzl7Z2hF7iHjySsMF71-15" value="- items: ArrayList&amp;lt;Item&amp;gt;" style="rounded=0;whiteSpace=wrap;html=1;align=left;spacingLeft=2;" parent="1" vertex="1">
          <mxGeometry x="131" y="50" width="160" height="26" as="geometry" />
        </mxCell>
        <mxCell id="llzl7Z2hF7iHjySsMF71-16" value="- addItem(item: Item): void" style="rounded=0;whiteSpace=wrap;html=1;align=left;spacingLeft=2;" parent="1" vertex="1">
          <mxGeometry x="131" y="76" width="160" height="27" as="geometry" />
        </mxCell>
        <mxCell id="llzl7Z2hF7iHjySsMF71-17" value="&lt;i&gt;Item&lt;/i&gt;" style="rounded=0;whiteSpace=wrap;html=1;" parent="1" vertex="1">
          <mxGeometry x="121" y="149" width="180" height="30" as="geometry" />
        </mxCell>
        <mxCell id="llzl7Z2hF7iHjySsMF71-18" value="- itemType:&amp;nbsp;TrackerType&lt;br style=&quot;border-color: var(--border-color); background-color: rgb(255, 255, 255);&quot;&gt;&lt;span style=&quot;background-color: rgb(255, 255, 255);&quot;&gt;- itemName: String&lt;/span&gt;&lt;br style=&quot;border-color: var(--border-color); background-color: rgb(255, 255, 255);&quot;&gt;&lt;span style=&quot;background-color: rgb(255, 255, 255);&quot;&gt;- itemTime: DateTime&lt;/span&gt;&lt;br style=&quot;border-color: var(--border-color); background-color: rgb(255, 255, 255);&quot;&gt;&lt;span style=&quot;background-color: rgb(255, 255, 255);&quot;&gt;- calorieCount: Float&lt;/span&gt;" style="rounded=0;whiteSpace=wrap;html=1;align=left;spacingLeft=2;" parent="1" vertex="1">
          <mxGeometry x="121" y="179" width="180" height="63" as="geometry" />
        </mxCell>
        <mxCell id="llzl7Z2hF7iHjySsMF71-19" value="&lt;i&gt;- estimateCalorieCount(): Float&lt;/i&gt;" style="rounded=0;whiteSpace=wrap;html=1;align=left;spacingLeft=2;" parent="1" vertex="1">
          <mxGeometry x="121" y="242" width="180" height="28" as="geometry" />
        </mxCell>
        <mxCell id="llzl7Z2hF7iHjySsMF71-20" style="edgeStyle=orthogonalEdgeStyle;rounded=0;orthogonalLoop=1;jettySize=auto;html=1;endArrow=diamondThin;endFill=0;startSize=15;endSize=15;exitX=0.5;exitY=0;exitDx=0;exitDy=0;entryX=0.5;entryY=1;entryDx=0;entryDy=0;" parent="1" source="llzl7Z2hF7iHjySsMF71-17" target="llzl7Z2hF7iHjySsMF71-16" edge="1">
          <mxGeometry relative="1" as="geometry">
            <mxPoint x="221.99999999999977" y="360" as="targetPoint" />
            <mxPoint x="278.5" y="487" as="sourcePoint" />
          </mxGeometry>
        </mxCell>
        <mxCell id="llzl7Z2hF7iHjySsMF71-21" value="Item item = new Item();&lt;br&gt;items.add(item);&lt;br&gt;&lt;div style=&quot;&quot;&gt;&lt;span style=&quot;background-color: initial;&quot;&gt;items.estimateCalorieCount();&lt;/span&gt;&lt;/div&gt;" style="shape=note2;boundedLbl=1;whiteSpace=wrap;html=1;size=25;verticalAlign=middle;align=left;labelPosition=center;verticalLabelPosition=middle;spacingTop=0;spacingBottom=0;spacingLeft=0;textDirection=ltr;horizontal=1;" parent="1" vertex="1">
          <mxGeometry x="348" y="76" width="181" height="60" as="geometry" />
        </mxCell>
        <mxCell id="llzl7Z2hF7iHjySsMF71-44" style="rounded=0;orthogonalLoop=1;jettySize=auto;html=1;exitX=0;exitY=0.5;exitDx=0;exitDy=0;exitPerimeter=0;endArrow=none;endFill=0;dashed=1;" parent="1" source="llzl7Z2hF7iHjySsMF71-21" edge="1">
          <mxGeometry relative="1" as="geometry">
            <mxPoint x="279" y="90.0014213197969" as="targetPoint" />
            <mxPoint x="396" y="105.74" as="sourcePoint" />
          </mxGeometry>
        </mxCell>
        <mxCell id="llzl7Z2hF7iHjySsMF71-45" value="Tracker" style="rounded=0;whiteSpace=wrap;html=1;fontStyle=2" parent="1" vertex="1">
          <mxGeometry x="125.5" y="476" width="160" height="30" as="geometry" />
        </mxCell>
        <mxCell id="llzl7Z2hF7iHjySsMF71-55" value="- items: ArrayList&amp;lt;Item&amp;gt;" style="rounded=0;whiteSpace=wrap;html=1;align=left;spacingLeft=2;" parent="1" vertex="1">
          <mxGeometry x="125.5" y="506" width="160" height="26" as="geometry" />
        </mxCell>
        <mxCell id="llzl7Z2hF7iHjySsMF71-56" value="- addItem(item: Item): void&lt;br&gt;&lt;i&gt;- createItem(): Item&lt;/i&gt;" style="rounded=0;whiteSpace=wrap;html=1;align=left;spacingLeft=2;" parent="1" vertex="1">
          <mxGeometry x="125.5" y="532" width="160" height="35" as="geometry" />
        </mxCell>
        <mxCell id="llzl7Z2hF7iHjySsMF71-57" value="&lt;i&gt;Item&lt;/i&gt;" style="rounded=0;whiteSpace=wrap;html=1;" parent="1" vertex="1">
          <mxGeometry x="-282" y="580" width="180" height="34" as="geometry" />
        </mxCell>
        <mxCell id="llzl7Z2hF7iHjySsMF71-59" value="&lt;i&gt;- estimateCalorieCount(): Float&lt;/i&gt;" style="rounded=0;whiteSpace=wrap;html=1;align=left;spacingLeft=2;" parent="1" vertex="1">
          <mxGeometry x="-282" y="677" width="180" height="28" as="geometry" />
        </mxCell>
        <mxCell id="llzl7Z2hF7iHjySsMF71-61" value="Item item = new createItem();&lt;br&gt;items.add(item);&lt;br&gt;&lt;div style=&quot;&quot;&gt;&lt;span style=&quot;background-color: initial;&quot;&gt;items.estimateCalorieCount();&lt;/span&gt;&lt;/div&gt;" style="shape=note2;boundedLbl=1;whiteSpace=wrap;html=1;size=25;verticalAlign=middle;align=left;labelPosition=center;verticalLabelPosition=middle;spacingTop=0;spacingBottom=0;spacingLeft=0;textDirection=ltr;horizontal=1;" parent="1" vertex="1">
          <mxGeometry x="313" y="519.5" width="193" height="60" as="geometry" />
        </mxCell>
        <mxCell id="llzl7Z2hF7iHjySsMF71-63" style="edgeStyle=orthogonalEdgeStyle;rounded=0;orthogonalLoop=1;jettySize=auto;html=1;exitX=0.5;exitY=0;exitDx=0;exitDy=0;entryX=0.5;entryY=1;entryDx=0;entryDy=0;endArrow=block;endFill=0;endSize=15;startSize=15;" parent="1" source="llzl7Z2hF7iHjySsMF71-64" edge="1">
          <mxGeometry relative="1" as="geometry">
            <mxPoint x="-192" y="705" as="targetPoint" />
          </mxGeometry>
        </mxCell>
        <mxCell id="llzl7Z2hF7iHjySsMF71-64" value="Exercise" style="rounded=0;whiteSpace=wrap;html=1;" parent="1" vertex="1">
          <mxGeometry x="-384" y="759" width="180" height="30" as="geometry" />
        </mxCell>
        <mxCell id="llzl7Z2hF7iHjySsMF71-65" style="edgeStyle=orthogonalEdgeStyle;rounded=0;orthogonalLoop=1;jettySize=auto;html=1;exitX=0.5;exitY=0;exitDx=0;exitDy=0;entryX=0.5;entryY=1;entryDx=0;entryDy=0;endArrow=block;endFill=0;endSize=15;startSize=15;" parent="1" source="llzl7Z2hF7iHjySsMF71-66" edge="1">
          <mxGeometry relative="1" as="geometry">
            <mxPoint x="-192" y="705" as="targetPoint" />
          </mxGeometry>
        </mxCell>
        <mxCell id="llzl7Z2hF7iHjySsMF71-66" value="Food" style="rounded=0;whiteSpace=wrap;html=1;" parent="1" vertex="1">
          <mxGeometry x="-180" y="759" width="180" height="30" as="geometry" />
        </mxCell>
        <mxCell id="llzl7Z2hF7iHjySsMF71-67" value="- exerciseDuration: int&lt;br style=&quot;border-color: var(--border-color);&quot;&gt;- /itemEndTime: DateTime" style="rounded=0;whiteSpace=wrap;html=1;align=left;spacingLeft=2;" parent="1" vertex="1">
          <mxGeometry x="-384" y="789" width="180" height="39" as="geometry" />
        </mxCell>
        <mxCell id="llzl7Z2hF7iHjySsMF71-69" value="- servingSizeInGrams: int" style="rounded=0;whiteSpace=wrap;html=1;align=left;spacingLeft=2;" parent="1" vertex="1">
          <mxGeometry x="-180" y="789" width="180" height="23" as="geometry" />
        </mxCell>
        <mxCell id="llzl7Z2hF7iHjySsMF71-71" style="edgeStyle=orthogonalEdgeStyle;rounded=0;orthogonalLoop=1;jettySize=auto;html=1;exitX=0.5;exitY=0;exitDx=0;exitDy=0;entryX=0.5;entryY=1;entryDx=0;entryDy=0;endArrow=block;endFill=0;endSize=15;startSize=15;" parent="1" source="llzl7Z2hF7iHjySsMF71-72" edge="1">
          <mxGeometry relative="1" as="geometry">
            <mxPoint x="211" y="567" as="targetPoint" />
          </mxGeometry>
        </mxCell>
        <mxCell id="llzl7Z2hF7iHjySsMF71-93" style="rounded=0;orthogonalLoop=1;jettySize=auto;html=1;exitX=0;exitY=1;exitDx=0;exitDy=0;entryX=0.75;entryY=0;entryDx=0;entryDy=0;endArrow=open;endFill=0;edgeStyle=orthogonalEdgeStyle;dashed=1;" parent="1" source="llzl7Z2hF7iHjySsMF71-84" target="llzl7Z2hF7iHjySsMF71-66" edge="1">
          <mxGeometry relative="1" as="geometry">
            <Array as="points">
              <mxPoint x="-45" y="665" />
            </Array>
          </mxGeometry>
        </mxCell>
        <mxCell id="llzl7Z2hF7iHjySsMF71-72" value="FoodItem" style="rounded=0;whiteSpace=wrap;html=1;" parent="1" vertex="1">
          <mxGeometry x="19" y="624" width="180" height="30" as="geometry" />
        </mxCell>
        <mxCell id="llzl7Z2hF7iHjySsMF71-73" style="edgeStyle=orthogonalEdgeStyle;rounded=0;orthogonalLoop=1;jettySize=auto;html=1;exitX=0.5;exitY=0;exitDx=0;exitDy=0;entryX=0.5;entryY=1;entryDx=0;entryDy=0;endArrow=block;endFill=0;endSize=15;startSize=15;" parent="1" source="llzl7Z2hF7iHjySsMF71-74" edge="1">
          <mxGeometry relative="1" as="geometry">
            <mxPoint x="211" y="567" as="targetPoint" />
          </mxGeometry>
        </mxCell>
        <mxCell id="llzl7Z2hF7iHjySsMF71-74" value="ExerciseItem" style="rounded=0;whiteSpace=wrap;html=1;" parent="1" vertex="1">
          <mxGeometry x="223" y="624" width="180" height="30" as="geometry" />
        </mxCell>
        <mxCell id="llzl7Z2hF7iHjySsMF71-76" value="&lt;span style=&quot;border-color: var(--border-color);&quot;&gt;- createItem(): Item&lt;/span&gt;" style="rounded=0;whiteSpace=wrap;html=1;align=left;spacingLeft=2;" parent="1" vertex="1">
          <mxGeometry x="19" y="667" width="180" height="19" as="geometry" />
        </mxCell>
        <mxCell id="llzl7Z2hF7iHjySsMF71-82" style="rounded=0;orthogonalLoop=1;jettySize=auto;html=1;exitX=0;exitY=0.5;exitDx=0;exitDy=0;exitPerimeter=0;endArrow=none;endFill=0;dashed=1;" parent="1" source="llzl7Z2hF7iHjySsMF71-61" edge="1">
          <mxGeometry relative="1" as="geometry">
            <mxPoint x="236" y="558.5014213197969" as="targetPoint" />
            <mxPoint x="275.5" y="532" as="sourcePoint" />
          </mxGeometry>
        </mxCell>
        <mxCell id="llzl7Z2hF7iHjySsMF71-83" value="return new Food();" style="shape=note2;boundedLbl=1;whiteSpace=wrap;html=1;size=25;verticalAlign=middle;align=left;labelPosition=center;verticalLabelPosition=middle;spacingTop=0;spacingBottom=0;spacingLeft=0;textDirection=ltr;horizontal=1;" parent="1" vertex="1">
          <mxGeometry x="113" y="708" width="131" height="36.5" as="geometry" />
        </mxCell>
        <mxCell id="llzl7Z2hF7iHjySsMF71-84" value="" style="rounded=0;whiteSpace=wrap;html=1;align=left;spacingLeft=2;" parent="1" vertex="1">
          <mxGeometry x="19" y="654" width="180" height="13" as="geometry" />
        </mxCell>
        <mxCell id="llzl7Z2hF7iHjySsMF71-85" value="" style="rounded=0;whiteSpace=wrap;html=1;align=left;spacingLeft=2;" parent="1" vertex="1">
          <mxGeometry x="223" y="654" width="180" height="13" as="geometry" />
        </mxCell>
        <mxCell id="llzl7Z2hF7iHjySsMF71-94" style="edgeStyle=orthogonalEdgeStyle;rounded=0;orthogonalLoop=1;jettySize=auto;html=1;exitX=0.5;exitY=1;exitDx=0;exitDy=0;entryX=0.5;entryY=1;entryDx=0;entryDy=0;endArrow=open;endFill=0;dashed=1;" parent="1" source="llzl7Z2hF7iHjySsMF71-86" target="llzl7Z2hF7iHjySsMF71-90" edge="1">
          <mxGeometry relative="1" as="geometry" />
        </mxCell>
        <mxCell id="llzl7Z2hF7iHjySsMF71-86" value="&lt;span style=&quot;border-color: var(--border-color);&quot;&gt;- createItem(): Item&lt;/span&gt;" style="rounded=0;whiteSpace=wrap;html=1;align=left;spacingLeft=2;" parent="1" vertex="1">
          <mxGeometry x="223" y="667" width="180" height="19" as="geometry" />
        </mxCell>
        <mxCell id="llzl7Z2hF7iHjySsMF71-87" style="rounded=0;orthogonalLoop=1;jettySize=auto;html=1;exitX=0;exitY=0;exitDx=62;exitDy=0;exitPerimeter=0;endArrow=none;endFill=0;dashed=1;" parent="1" source="llzl7Z2hF7iHjySsMF71-83" edge="1">
          <mxGeometry relative="1" as="geometry">
            <mxPoint x="128" y="679.0014213197969" as="targetPoint" />
            <mxPoint x="205" y="670" as="sourcePoint" />
          </mxGeometry>
        </mxCell>
        <mxCell id="llzl7Z2hF7iHjySsMF71-88" value="return new&amp;nbsp;Exercise();" style="shape=note2;boundedLbl=1;whiteSpace=wrap;html=1;size=25;verticalAlign=middle;align=left;labelPosition=center;verticalLabelPosition=middle;spacingTop=0;spacingBottom=0;spacingLeft=0;textDirection=ltr;horizontal=1;" parent="1" vertex="1">
          <mxGeometry x="335" y="706" width="156" height="36.5" as="geometry" />
        </mxCell>
        <mxCell id="llzl7Z2hF7iHjySsMF71-89" style="rounded=0;orthogonalLoop=1;jettySize=auto;html=1;exitX=0;exitY=0;exitDx=62;exitDy=0;exitPerimeter=0;endArrow=none;endFill=0;dashed=1;" parent="1" source="llzl7Z2hF7iHjySsMF71-88" edge="1">
          <mxGeometry relative="1" as="geometry">
            <mxPoint x="333.9999999999998" y="679.0014213197969" as="targetPoint" />
            <mxPoint x="411" y="670" as="sourcePoint" />
          </mxGeometry>
        </mxCell>
        <mxCell id="llzl7Z2hF7iHjySsMF71-90" value="- estimateCalorieCount(): Float" style="rounded=0;whiteSpace=wrap;html=1;align=left;spacingLeft=2;" parent="1" vertex="1">
          <mxGeometry x="-384" y="828" width="180" height="28" as="geometry" />
        </mxCell>
        <mxCell id="llzl7Z2hF7iHjySsMF71-91" value="&lt;span style=&quot;font-style: normal;&quot;&gt;- estimateCalorieCount(): Float&lt;/span&gt;" style="rounded=0;whiteSpace=wrap;html=1;align=left;spacingLeft=2;fontStyle=2" parent="1" vertex="1">
          <mxGeometry x="-180" y="812" width="180" height="28" as="geometry" />
        </mxCell>
        <mxCell id="llzl7Z2hF7iHjySsMF71-92" value="- itemType:&amp;nbsp;TrackerType&lt;br style=&quot;border-color: var(--border-color); background-color: rgb(255, 255, 255);&quot;&gt;&lt;span style=&quot;background-color: rgb(255, 255, 255);&quot;&gt;- itemName: String&lt;/span&gt;&lt;br style=&quot;border-color: var(--border-color); background-color: rgb(255, 255, 255);&quot;&gt;&lt;span style=&quot;background-color: rgb(255, 255, 255);&quot;&gt;- itemTime: DateTime&lt;/span&gt;&lt;br style=&quot;border-color: var(--border-color); background-color: rgb(255, 255, 255);&quot;&gt;&lt;span style=&quot;background-color: rgb(255, 255, 255);&quot;&gt;- calorieCount: Float&lt;/span&gt;" style="rounded=0;whiteSpace=wrap;html=1;align=left;spacingLeft=2;" parent="1" vertex="1">
          <mxGeometry x="-282" y="614" width="180" height="63" as="geometry" />
        </mxCell>
        <mxCell id="llzl7Z2hF7iHjySsMF71-95" value="- estimateCalorieCount(): Float" style="rounded=0;whiteSpace=wrap;html=1;align=left;spacingLeft=2;" parent="1" vertex="1">
          <mxGeometry x="19" y="393" width="180" height="28" as="geometry" />
        </mxCell>
        <mxCell id="llzl7Z2hF7iHjySsMF71-96" value="- estimateCalorieCount(): Float" style="rounded=0;whiteSpace=wrap;html=1;align=left;spacingLeft=2;" parent="1" vertex="1">
          <mxGeometry x="223" y="377" width="180" height="28" as="geometry" />
        </mxCell>
      </root>
    </mxGraphModel>
  </diagram>
</mxfile>
